<?xml version="1.0" encoding="UTF-8"?>
<!-- Generator: Adobe Illustrator 26.0.3, SVG Export Plug-In . SVG Version: 6.00 Build 0)  -->
<svg version="1.1" id="Layer_1" xmlns="http://www.w3.org/2000/svg" xmlns:xlink="http://www.w3.org/1999/xlink" x="0px" y="0px" viewBox="0 0 264.9 284.2" style="enable-background:new 0 0 264.9 284.2;" xml:space="preserve">
<style type="text/css">
	.st0{fill:url(#SVGID_1_);}
</style>
<linearGradient id="SVGID_1_" gradientUnits="userSpaceOnUse" x1="19.01" y1="283.5161" x2="246.1823" y2="56.3439">
	<stop offset="0" style="stop-color:#00C9FF"/>
	<stop offset="1" style="stop-color:#92FE9D"/>
</linearGradient>
<path class="st0" d="M167.6,269c-0.2,5.1,3.7,9.5,8.8,9.8l64.4,5.4c5.1,0.5,9.7-3.2,10.3-8.3l5.2-53.2l-83.6-6.7L167.6,269z   M9,222.6l5.2,53.3c0.6,5.1,5.2,8.8,10.3,8.3l64.4-5.3v0c5.1-0.4,9-4.7,8.8-9.9l-5.1-53.1L9,222.6z M132.6,0C59.6,0,0,55.8,0,124.5  c0,3.6,0,7.2,0.5,10.8l5.2,54.7l83.6-6.9l-5.2-54.7v-4c0-25.1,21.7-45.5,48.4-45.5c26.7,0,48.5,20.5,48.5,45.5v4l-5.4,54.7l83.6,6.9  l5.2-54.7c0.3-3.6,0.5-7.2,0.5-10.8C265.2,55.8,205.6,0,132.6,0L132.6,0z M99.4,33.2L99.4,33.2c-33.4,10.2-59.3,36.6-68.8,70.1  c-0.8,3.2-3.7,5.4-7,5.4c-0.6,0.1-1.2,0.1-1.8,0c-1.8-0.5-3.4-1.6-4.4-3.3c-1-1.6-1.2-3.6-0.8-5.4c10.6-38.3,39.9-68.7,77.9-80.5  c3.8-1.3,7.9,0.7,9.2,4.5C105.3,27.7,103.2,31.8,99.4,33.2L99.4,33.2z"/>
</svg>